<?xml version="1.0" encoding="utf-8"?>
<svg version="1.1" xmlns:xlink="http://www.w3.org/1999/xlink" width="16px" height="18px" xmlns="http://www.w3.org/2000/svg">
  <g transform="matrix(1 0 0 1 -2 -1 )">
    <path d="M 11 0  L 5 0  L 5 1  L 0 1  L 0 3  L 1 3  L 1 16  C 1 17.1045695  1.8954305 18  3 18  L 13 18  C 14.1045695 18  15 17.1045695  15 16  L 15 3  L 16 3  L 16 1  L 11 1  L 11 0  Z M 3 16  L 3 3  L 13 3  L 13 16  L 3 16  Z M 7 5  L 5 5  L 5 14  L 7 14  L 7 5  Z M 11 5  L 9 5  L 9 14  L 11 14  L 11 5  Z " fill-rule="nonzero" fill="#000000" stroke="none" transform="matrix(1 0 0 1 2 1 )" />
  </g>
</svg>