<?xml version="1.0" encoding="utf-8"?>
<svg version="1.1" xmlns:xlink="http://www.w3.org/1999/xlink" width="20px" height="20px" xmlns="http://www.w3.org/2000/svg">
  <g transform="matrix(1 0 0 1 -25 -20 )">
    <path d="M 11.549479166666668 16.549479166666668  C 11.627604166666668 16.471354166666668  11.666666666666668 16.37152777777778  11.666666666666668 16.25  L 11.666666666666668 13.75  C 11.666666666666668 13.628472222222218  11.627604166666668 13.528645833333336  11.549479166666668 13.450520833333336  C 11.471354166666668 13.372395833333336  11.371527777777779 13.333333333333336  11.25 13.333333333333336  L 8.75 13.333333333333336  C 8.628472222222223 13.333333333333336  8.528645833333334 13.372395833333336  8.450520833333334 13.450520833333336  C 8.372395833333334 13.528645833333336  8.333333333333334 13.628472222222218  8.333333333333334 13.75  L 8.333333333333334 16.25  C 8.333333333333334 16.37152777777778  8.372395833333334 16.471354166666668  8.450520833333334 16.549479166666668  C 8.528645833333334 16.627604166666668  8.628472222222223 16.666666666666668  8.75 16.666666666666668  L 11.25 16.666666666666668  C 11.371527777777779 16.666666666666668  11.471354166666668 16.627604166666668  11.549479166666668 16.549479166666668  Z M 14.837239583333332 8.5546875  C 14.945746527777779 8.233506944444445  15 7.881944444444445  15 7.5  C 15 6.736111111111109  14.759114583333332 6.028645833333332  14.27734375 5.377604166666668  C 13.795572916666668 4.7265625  13.194444444444446 4.223090277777777  12.473958333333332 3.8671875  C 11.753472222222223 3.511284722222221  11.015625 3.3333333333333326  10.260416666666668 3.3333333333333326  C 8.151041666666666 3.3333333333333326  6.540798611111112 4.2578125  5.4296875 6.106770833333332  C 5.299479166666668 6.315104166666668  5.334201388888889 6.497395833333332  5.533854166666666 6.653645833333332  L 7.252604166666666 7.955729166666668  C 7.313368055555557 8.0078125  7.395833333333334 8.033854166666668  7.5 8.033854166666668  C 7.638888888888889 8.033854166666668  7.747395833333334 7.981770833333332  7.825520833333334 7.877604166666668  C 8.285590277777779 7.287326388888888  8.658854166666666 6.888020833333332  8.9453125 6.6796875  C 9.24045138888889 6.471354166666668  9.613715277777779 6.3671875  10.065104166666668 6.3671875  C 10.481770833333332 6.3671875  10.852864583333332 6.480034722222221  11.178385416666668 6.705729166666668  C 11.50390625 6.931423611111109  11.666666666666668 7.187499999999998  11.666666666666668 7.473958333333332  C 11.666666666666668 7.803819444444445  11.57986111111111 8.06857638888889  11.40625 8.268229166666668  C 11.232638888888891 8.467881944444445  10.9375 8.663194444444445  10.520833333333332 8.854166666666668  C 9.973958333333334 9.097222222222221  9.47265625 9.47265625  9.016927083333334 9.98046875  C 8.561197916666666 10.48828125  8.333333333333334 11.03298611111111  8.333333333333334 11.614583333333336  L 8.333333333333334 12.083333333333336  C 8.333333333333334 12.20486111111111  8.372395833333334 12.3046875  8.450520833333334 12.3828125  C 8.528645833333334 12.4609375  8.628472222222223 12.5  8.75 12.5  L 11.25 12.5  C 11.371527777777779 12.5  11.471354166666668 12.4609375  11.549479166666668 12.3828125  C 11.627604166666668 12.3046875  11.666666666666668 12.20486111111111  11.666666666666668 12.083333333333336  C 11.666666666666668 11.918402777777777  11.759982638888891 11.703559027777777  11.946614583333332 11.438802083333336  C 12.133246527777779 11.17404513888889  12.369791666666668 10.95920138888889  12.65625 10.794270833333336  C 12.934027777777779 10.638020833333336  13.146701388888891 10.514322916666664  13.294270833333332 10.423177083333336  C 13.441840277777779 10.33203125  13.641493055555555 10.180121527777777  13.893229166666668 9.967447916666668  C 14.144965277777779 9.754774305555555  14.338107638888891 9.546440972222221  14.47265625 9.342447916666668  C 14.607204861111114 9.138454861111109  14.728732638888891 8.875868055555555  14.837239583333332 8.5546875  Z M 18.658854166666668 4.98046875  C 19.552951388888886 6.512586805555554  20 8.185763888888886  20 10  C 20 11.81423611111111  19.552951388888886 13.487413194444443  18.658854166666668 15.01953125  C 17.764756944444446 16.551649305555557  16.551649305555557 17.764756944444443  15.01953125 18.658854166666668  C 13.487413194444446 19.55295138888889  11.81423611111111 20  10 20  C 8.18576388888889 20  6.512586805555555 19.55295138888889  4.98046875 18.658854166666668  C 3.4483506944444446 17.764756944444443  2.235243055555556 16.551649305555557  1.3411458333333335 15.01953125  C 0.44704861111111105 13.487413194444443  0 11.81423611111111  0 10  C 0 8.185763888888886  0.44704861111111105 6.512586805555554  1.3411458333333335 4.98046875  C 2.235243055555556 3.448350694444444  3.4483506944444446 2.2352430555555536  4.98046875 1.3411458333333326  C 6.512586805555555 0.4470486111111094  8.18576388888889 0  10 0  C 11.81423611111111 0  13.487413194444446 0.4470486111111094  15.01953125 1.3411458333333326  C 16.551649305555557 2.2352430555555536  17.764756944444446 3.448350694444444  18.658854166666668 4.98046875  Z " fill-rule="nonzero" fill="#505050" stroke="none" fill-opacity="0.8" transform="matrix(1 0 0 1 25 20 )" />
  </g>
</svg>